<svg width="578" height="840" viewBox="0 0 578 840" className="thumbs-up" xmlns="http://www.w3.org/2000/svg"><g stroke="#FFF" stroke-width="6" fill="none" fillRule="evenodd" strokeLinecap="round" strokeLinejoin="round"><path d="M-4.496 616.25l226.809-224.04 129.566 131.74C165.1 733.08 46.309 847.498-4.496 867.206M281.959 377.488c15.273-19.752 24.484-36.437 27.63-50.054 4.722-20.426 57.23-172.288 61.018-207.323 3.79-35.035 8.674-87.504 8.674-109.066 0-21.563 31.27 5.937 34.8 64.508 3.528 58.57.901 73.822 14.907 73.941 14.006.12 133.569-9.96 142.987 19.48 9.418 29.442-7.03 61.745-54.698 62.243-47.668.498-52.056-27.015-47.53-36.95 4.524-9.936 72.4 4.952 72.302-16.958"/><path d="M553.23 260.744c11.63 16.04 11.285 28.548-1.033 37.526-18.476 13.466-71.619-8.293-77.236-13.844-5.617-5.551-8.484-23.966 6.152-27.743M493.238 332.564c-30.19 29.055-67.84 41.581-112.95 37.579M234.797 402.98l37.152-34.804L374.11 475.84l-32.254 35.101"/><path d="M563.422 214.63c10.469 15.382 9.663 28.933-2.416 40.651-18.12 17.578-69.863 6.877-81.236 0-11.374-6.877-23.057-22.96 0-32.965M538.656 303.72c13.904 17.252 10.513 27.775-10.172 31.571-31.027 5.693-56.888-18.2-53.927-31.57 1.974-8.914 7.22-12.692 15.737-11.332M414.14 369.799c-37.201 31.256-60.139 55.778-68.812 73.564"/></g></svg>
