<?xml version="1.0" encoding="UTF-8"?>
<svg width="150px" height="34px" viewBox="0 0 150 34" version="1.1" xmlns="http://www.w3.org/2000/svg" xmlns:xlink="http://www.w3.org/1999/xlink">
    <!-- Generator: Sketch 53.2 (72643) - https://sketchapp.com -->
    <title>Group 2</title>
    <desc>Created with Sketch.</desc>
    <g id="Page-1" stroke="none" stroke-width="1" fill="none" fill-rule="evenodd">
        <g id="Desktop-HD-Copy-39" transform="translate(-844.000000, -5589.000000)" fill-rule="nonzero">
            <g id="Group-2" transform="translate(844.000000, 5589.570886)">
                <path d="M58.1922196,32.9751806 L58.1922196,1.85746271 L79.6189911,1.85746271 L79.6189911,7.32529029 L64.2824015,7.32529029 L64.2824015,15.015812 L78.1964668,15.015812 L78.1964668,20.4836396 L64.2824015,20.4836396 L64.2824015,32.9751806 L58.1922196,32.9751806 Z M83.1588141,32.9751806 L83.1588141,0.0793073965 L89.1156344,0.0793073965 L89.1156344,32.9751806 L83.1588141,32.9751806 Z M102.87985,33.3752656 C99.2642499,33.3752656 96.4859101,32.2787474 94.5447475,30.0856783 C92.6035849,27.8926091 91.6330181,25.0179534 91.6330181,21.461625 C91.6330181,17.9052966 92.6109938,15.0158231 94.5669744,12.7931179 C96.522955,10.5704126 99.293886,9.45907666 102.87985,9.45907666 C106.436179,9.45907666 109.192292,10.5704126 111.148273,12.7931179 C113.104253,15.0158231 114.082229,17.9052966 114.082229,21.461625 C114.082229,24.9883173 113.111662,27.8555641 111.1705,30.0634513 C109.229337,32.2713385 106.465815,33.3752656 102.87985,33.3752656 Z M97.7232001,21.461625 C97.7232001,25.9070355 99.4420664,28.1297074 102.87985,28.1297074 C106.317635,28.1297074 108.036501,25.9070355 108.036501,21.461625 C108.036501,16.9569424 106.317635,14.7046348 102.87985,14.7046348 C99.4420664,14.7046348 97.7232001,16.9569424 97.7232001,21.461625 Z M120.778278,32.9751806 L114.865911,10.3037004 L114.865911,9.8591616 L120.778278,9.8591616 L124.556858,26.3070982 L124.734673,26.3070982 L128.468799,9.8591616 L136.114867,9.8591616 L139.848993,26.3070982 L140.026809,26.3070982 L143.849843,9.8591616 L149.673301,9.8591616 L149.673301,10.3037004 L143.805389,32.9751806 L136.248229,32.9751806 L132.425195,16.5716979 L132.247379,16.5716979 L128.335438,32.9751806 L120.778278,32.9751806 Z" id="Flow" fill="#FFFFFF"></path>
                <g id="flow-logo" transform="translate(0.000000, 0.939167)">
                    <path d="M17.4605256,2.44352252 C17.4605256,1.95902207 17.6538935,1.5203734 17.9681165,1.20246774 C18.2823395,0.886090478 18.7159068,0.688927836 19.1947947,0.688927836 L1.73426919,0.688927836 C0.776493348,0.688927836 0,1.47452162 0,2.44352252 L0,30.7004446 C0,32.2624618 1.86720969,33.0465272 2.95943671,31.9399709 L17.4605256,17.270459 L17.4605256,2.44352252 Z" id="Fill-7" fill="#FD0178"></path>
                    <path d="M46.645619,0.688927836 L29.3126905,0.688927836 C30.2709654,0.688927836 30.9308104,1.42713045 31.0252882,2.25092176 C31.0822748,2.74458521 30.936809,3.27034442 30.5304044,3.68453264 L23.8644703,10.476608 L17.1985361,17.2702118 L17.1985361,30.6999971 C17.1985361,32.2619911 19.0536004,33.0460448 20.1378456,31.9410334 L47.8633329,3.68453264 C48.9475783,2.57952128 48.1797586,0.688927836 46.645619,0.688927836" id="Fill-9" fill="#0000FF"></path>
                    <polygon id="Fill-11" fill="#0000FF" points="17.1985361 17.1963764 17.1985361 17.1963764 23.9551039 10.3442279"></polygon>
                    <polygon id="Fill-13" fill="#0000FF" points="29.4832047 0.533197189 29.4832047 0.533197189 29.4832047 0.533197189 19.0412364 0.533197189 19.0412364 0.533197189 19.0412364 0.533197189"></polygon>
                    <path d="M19.0412364,0.533197189 C18.5017019,0.533197189 18.0132274,0.712565523 17.6592112,1.00038913 C18.0132274,0.712565523 18.5017019,0.533197189 19.0412364,0.533197189" id="Fill-15" fill="#0000FF"></path>
                    <path d="M23.9551039,10.1884973 L30.6624429,3.50159748 C31.0713718,3.09391472 31.2177412,2.57791772 31.1604007,2.09050366 C31.2177412,2.57791772 31.0713718,3.09391472 30.6624429,3.50159748 L23.9551039,10.1884973 Z" id="Fill-17" fill="#0000FF"></path>
                    <path d="M31.0187883,2.09050366 C30.9256044,1.26918449 30.2747967,0.533197189 29.3296463,0.533197189 C30.2747967,0.533197189 30.9256044,1.26918449 31.0187883,2.09050366" id="Fill-19" fill="#0000FF"></path>
                    <path d="M18.9369495,0.688927836 C18.4569173,0.688927836 17.1985361,0.823063022 17.1985361,0.688927836 L17.1985361,17.5078377 L23.9295882,10.6168749 L30.6606402,3.72746257 C31.0710148,3.30733863 31.2179017,2.77404478 31.1603584,2.27330666 C31.0649576,1.43770961 30.3986668,0.688927836 29.4310307,0.688927836 L18.9369495,0.688927836 Z" id="Fill-21" fill="#FC41FC"></path>
                </g>
            </g>
        </g>
    </g>
</svg>