<?xml version="1.0" encoding="UTF-8"?>
<svg width="198px" height="47px" viewBox="0 0 198 47" version="1.1" xmlns="http://www.w3.org/2000/svg" xmlns:xlink="http://www.w3.org/1999/xlink">
    <!-- Generator: Sketch 53.2 (72643) - https://sketchapp.com -->
    <title>LS Logo (RedWhite)</title>
    <desc>Created with Sketch.</desc>
    <defs>
        <polygon id="path-1" points="0.261581652 0.40259377 17.072479 0.40259377 17.072479 27.9270746 0.261581652 27.9270746"></polygon>
        <polygon id="path-3" points="0.000104298904 0.232377959 53.8290817 0.232377959 53.8290817 45.4492905 0.000104298904 45.4492905"></polygon>
    </defs>
    <g id="Page-1" stroke="none" stroke-width="1" fill="none" fill-rule="evenodd">
        <g id="Desktop-HD-Copy-39" transform="translate(-1208.000000, -5582.000000)">
            <g id="Group-6" transform="translate(645.000000, 5341.203125)">
                <g id="Group-4" transform="translate(0.000000, 3.000000)">
                    <g id="LS-Logo-(RedWhite)" transform="translate(563.167530, 238.389185)">
                        <g id="Group-3" transform="translate(55.904213, 17.522216)">
                            <mask id="mask-2" fill="white">
                                <use xlink:href="#path-1"></use>
                            </mask>
                            <g id="Clip-2"></g>
                            <path d="M8.68434396,13.7803884 C6.29214429,13.7803884 4.33800002,11.7231968 4.33800002,8.82577328 C4.33800002,5.92834972 6.29214429,3.80524122 8.68434396,3.80524122 C11.0427508,3.80524122 12.9964779,5.96172537 12.9964779,8.82577328 C12.9964779,11.689404 11.0427508,13.7803884 8.68434396,13.7803884 Z M8.64971673,0.40259377 C4.01550781,0.418030008 0.261581652,3.64962726 0.261581652,8.82577328 C0.261581652,14.0144352 3.49568207,17.1809499 8.68434396,17.1809499 C10.7390324,17.1809499 12.8955165,18.2256077 12.8955165,20.516846 C12.8955165,22.80725 11.0427508,24.0880405 8.68434396,24.0880405 C6.32593714,24.0880405 4.33800002,22.672913 4.33800002,20.516846 L0.261581652,20.516846 C0.261581652,24.997527 3.86615178,27.9287434 8.68434396,27.9287434 C13.5021189,27.9287434 17.0057277,25.0984883 17.0057277,20.516846 C17.0057277,18.3941547 16.332374,16.4062176 13.5692874,15.0248829 C16.2985812,13.7778852 17.072479,10.8792101 17.072479,8.82410449 C17.0712274,3.63669419 13.2985275,0.40259377 8.64971673,0.40259377 L8.64971673,0.40259377 Z" id="Fill-1" fill="#FFFFFE" mask="url(#mask-2)"></path>
                        </g>
                        <path d="M49.3901203,13.0252644 C49.3901203,11.7023371 50.462313,10.6301443 51.7852403,10.6301443 C53.1077504,10.6301443 54.1803604,11.7023371 54.1803604,13.0252644 C54.1803604,14.3481917 53.1077504,15.4203844 51.7852403,15.4203844 C50.462313,15.4203844 49.3901203,14.3481917 49.3901203,13.0252644" id="Fill-4" fill="#FFFFFE"></path>
                        <path d="M174.270953,24.9854283 C173.803277,23.0133446 171.836199,21.320782 169.476541,21.320782 C167.251637,21.320782 165.229072,22.8406256 164.622887,24.9854283 L174.270953,24.9854283 Z M164.617464,28.1160642 C165.07471,30.0823072 166.88367,31.8019875 169.782763,31.8019875 C171.299269,31.8019875 173.288457,31.0648028 174.232154,30.0931542 L176.861738,32.6730919 C175.108682,34.4828865 172.243382,35.3573285 169.715177,35.353991 C164.532356,35.3473158 160.77384,31.9192195 160.77384,26.6250071 C160.77384,21.5986343 164.651674,17.9527618 169.425643,17.9344052 C174.451599,17.914797 178.623138,21.3675079 178.17507,28.1160642 L164.617464,28.1160642 L164.617464,28.1160642 Z" id="Fill-5" fill="#FFFFFE"></path>
                        <path d="M155.325683,24.9854283 C154.857589,23.0133446 152.890512,21.320782 150.530854,21.320782 C148.306367,21.320782 146.283802,22.8406256 145.677617,24.9854283 L155.325683,24.9854283 Z M145.672194,28.1160642 C146.12944,30.0823072 147.9384,31.8019875 150.837492,31.8019875 C152.353999,31.8019875 154.34277,31.0648028 155.286884,30.0931542 L157.916051,32.6730919 C156.162995,34.4828865 153.297695,35.3573285 150.769907,35.353991 C145.587086,35.3473158 141.82857,31.9192195 141.82857,26.6250071 C141.82857,21.5986343 145.705986,17.9527618 150.480373,17.9344052 C155.505911,17.914797 159.677868,21.3675079 159.2298,28.1160642 L145.672194,28.1160642 L145.672194,28.1160642 Z" id="Fill-6" fill="#FFFFFE"></path>
                        <path d="M84.8538337,17.9093734 C82.9768706,17.9093734 81.1679104,18.4788455 79.6931239,20.388767 L79.6931239,11.004786 L75.6054413,11.004786 L75.6054413,34.9184387 L79.6931239,34.9184387 L79.6931239,26.4739823 C79.6931239,23.9945887 81.3689987,21.9503302 83.7812238,21.9503302 C85.9594021,21.9503302 87.5343156,23.2240284 87.5343156,26.2395183 L87.5343156,34.9184387 L91.6224154,34.9184387 L91.6224154,25.9512362 C91.6224154,21.092576 89.5447812,17.9093734 84.8538337,17.9093734" id="Fill-7" fill="#FFFFFE"></path>
                        <path d="M131.537606,31.811583 C128.75658,31.811583 126.847076,29.2554254 126.847076,26.6750705 C126.847076,24.0951329 128.589285,21.320782 131.537606,21.320782 C134.486762,21.320782 136.229388,24.0951329 136.229388,26.6750705 C136.229388,29.2554254 134.319466,31.811583 131.537606,31.811583 Z M131.839656,17.9293988 C129.962693,17.9293988 127.751139,18.733752 126.477858,20.5769222 L126.341017,18.3111328 L122.390175,18.3111328 L122.390175,42.2356327 L126.477858,41.7963257 L126.477858,32.9747244 C127.651012,34.7841018 130.196322,35.3548254 131.938948,35.3548254 C137.233578,35.3548254 140.317488,31.4002281 140.317488,26.5749436 C140.317488,21.7158663 136.93278,17.9293988 131.839656,17.9293988 L131.839656,17.9293988 Z" id="Fill-8" fill="#FFFFFE"></path>
                        <path d="M188.392608,21.4718068 C191.174051,21.4718068 193.083555,24.0279644 193.083555,26.6083193 C193.083555,29.1882569 191.341346,31.963025 188.392608,31.963025 C185.443869,31.963025 183.701243,29.1882569 183.701243,26.6083193 C183.701243,24.0279644 185.611164,21.4718068 188.392608,21.4718068 Z M188.090975,35.353991 C189.967521,35.353991 192.179075,34.5496378 193.452356,32.7064676 L193.589613,34.9184387 L197.540456,34.9184387 L197.540456,11.0477571 L193.452356,11.0477571 L193.452356,20.3086654 C192.279619,18.499288 189.699681,17.9631917 187.957055,17.9631917 C182.662843,17.9631917 179.613143,21.8831617 179.613143,26.7088634 C179.613143,31.5675235 182.997851,35.353991 188.090975,35.353991 L188.090975,35.353991 Z" id="Fill-9" fill="#FFFFFE"></path>
                        <path d="M101.568776,32.1090435 C101.051871,32.1090435 100.668885,31.9467544 100.420237,31.6209246 C100.171171,31.295512 100.046846,30.7690111 100.046846,30.041422 L100.048098,21.875235 L103.338103,21.875235 L103.716916,18.3219799 L100.081891,18.3219799 L100.081891,13.7586942 L95.9537403,14.1988356 L95.9537403,18.3219799 L92.8406266,18.3219799 L92.8406266,21.875235 L95.9537403,21.875235 L95.9691765,30.1273643 C95.9691765,31.8316084 96.3709359,33.1240804 97.1752891,34.0043631 C97.979225,34.8850631 99.1661466,35.3343828 100.736054,35.353991 C101.425261,35.353991 102.119057,35.2534468 102.81786,35.0523585 C103.516662,34.8512702 104.14329,34.5596505 104.698995,34.1766649 L103.291794,31.5633516 C102.678934,31.9271462 102.104455,32.1090435 101.568776,32.1090435" id="Fill-10" fill="#FFFFFE"></path>
                        <path d="M118.404705,26.0225766 C116.743432,24.9929378 114.770931,24.8573492 112.870605,24.7401173 C111.75127,24.67128 110.015319,24.4055264 110.015319,22.9507653 C110.015736,21.9119482 111.100027,21.3091005 113.065019,21.3091005 C114.657454,21.3091005 116.012923,21.6774843 117.19901,22.7834698 L119.502764,20.1025708 C117.571566,18.4271132 115.606574,17.9248097 112.997433,17.9248097 C109.947733,17.9248097 105.949747,19.264842 105.949747,23.0846851 C105.949747,24.6796239 106.798323,26.1381398 108.14962,26.9758686 C109.700753,27.9375045 111.679095,28.0755962 113.427144,28.2549904 C114.592372,28.3747255 116.508968,28.6767751 116.198575,30.2896534 C115.97913,31.4273458 114.629919,31.7490036 113.642,31.7932264 C112.595256,31.8403695 111.5385,31.7661087 110.521377,31.504527 C109.442092,31.2266747 108.541784,30.6934987 107.620199,30.0814728 L105.550491,32.7306649 C105.662717,32.8249511 105.78871,32.9267469 105.79914,32.9350908 C108.485879,35.1320429 112.200589,35.8575461 115.558597,35.0978329 C118.090557,34.5246061 120.282086,32.6801843 120.282086,29.9254416 C120.282086,28.3730567 119.749327,26.8561334 118.404705,26.0225766" id="Fill-11" fill="#FFFFFE"></path>
                        <polyline id="Fill-12" fill="#FFFFFE" points="46.3913182 34.9426361 46.3913182 11.0210566 42.3370112 11.021891 42.3370112 34.9426361 46.3913182 34.9426361"></polyline>
                        <g id="Group-16">
                            <mask id="mask-4" fill="white">
                                <use xlink:href="#path-3"></use>
                            </mask>
                            <g id="Clip-14"></g>
                            <polygon id="Fill-13" fill="#FFFFFE" mask="url(#mask-4)" points="49.7409818 34.9184387 53.8290817 34.9184387 53.8290817 18.3315754 49.7409818 18.3315754"></polygon>
                            <path d="M15.1825829,0.232377959 L17.2810768,3.86656898 C17.7120399,4.61418352 17.7120399,5.54327816 17.2810768,6.28964112 L4.82653609,27.8624093 L10.7039879,38.0398963 C11.6255731,39.6356696 13.3352407,40.6269264 15.1796625,40.6269264 C17.0240843,40.6269264 18.7416787,39.6356696 19.6628466,38.0407307 L25.5402985,27.8624093 L23.952452,25.1135074 L17.2823284,36.6681572 C16.8509482,37.4157717 16.0378339,37.8784416 15.1817485,37.8784416 C14.3264975,37.8784416 13.5167208,37.4157717 13.0853405,36.6681572 L8.00306352,27.8615749 L19.567726,7.82658977 L21.6658028,11.4607808 C22.097183,12.2092297 22.097183,13.1379072 21.6658028,13.8846873 L13.595988,27.8624093 L15.1830001,30.6125628 L23.952452,15.421636 L29.7051623,25.3842673 C30.5866967,26.9132892 30.5866967,28.8127809 29.7051623,30.340134 L23.8594173,40.4642201 C22.9636983,42.0157706 20.1964398,45.4743222 15.1746562,45.4743222 C10.1528725,45.4743222 7.40271903,42.0157706 6.50741723,40.4642201 L0.661255053,30.3418028 C-0.220279286,28.8115293 -0.220279286,26.9128721 0.661255053,25.3855189 L15.1825829,0.232377959" id="Fill-15" fill="#DC4E4F" mask="url(#mask-4)"></path>
                        </g>
                    </g>
                </g>
            </g>
        </g>
    </g>
</svg>