<?xml version="1.0" encoding="UTF-8"?>
<svg width="137px" height="34px" viewBox="0 0 137 34" version="1.1" xmlns="http://www.w3.org/2000/svg" xmlns:xlink="http://www.w3.org/1999/xlink">
    <!-- Generator: Sketch 53.2 (72643) - https://sketchapp.com -->
    <title>Peroni</title>
    <desc>Created with Sketch.</desc>
    <g id="Page-1" stroke="none" stroke-width="1" fill="none" fill-rule="evenodd">
        <g id="Desktop-HD-Copy-39" transform="translate(-1034.000000, -5590.000000)" fill="#FFFFFF">
            <g id="Peroni" transform="translate(1034.000000, 5588.203125)">
                <g id="g10" transform="translate(69.500000, 17.867761) scale(-1, 1) rotate(-180.000000) translate(-69.500000, -17.867761) translate(0.000000, 0.367761)">
                    <g id="g18" transform="translate(0.000000, -0.000000)">
                        <g id="g20-Clipped" transform="translate(0.000000, -0.000000)">
                            <g id="g20" transform="translate(0.017579, 0.069849)">
                                <g id="g38" transform="translate(0.167434, 0.582894)" fill-rule="nonzero">
                                    <path d="M0,32.8724408 L13.3371972,32.8724408 C18.5486795,32.8724408 22.7731952,28.6244128 22.7731952,23.3840647 C22.7731952,18.1434493 18.5486795,13.8954213 13.3371972,13.8954213 L7.76346622,13.8954213 L7.76346622,5.53940717 C7.76346622,3.34630758 8.62306558,1.38946195 9.9678977,0.10850578 L0.239264609,0.10850578 C1.58409672,1.38946195 2.44343826,3.34630758 2.44343826,5.53940717 L2.44343826,27.4893782 C2.44343826,29.6552177 1.4925677,31.5909502 0,32.8724408 L0,32.8724408 Z M7.7933743,28.2515912 L7.7933743,18.393066 L12.1308188,18.393066 C14.922583,18.393066 17.1855415,20.6000629 17.1855415,23.3223286 C17.1855415,26.0448616 14.922583,28.2515912 12.1308188,28.2515912 L7.7933743,28.2515912 Z" id="path40"></path>
                                </g>
                                <g id="g42" transform="translate(47.371402, 0.689129)" fill-rule="nonzero">
                                    <path d="M0,29.1308622 L12.0392898,29.1308622 C16.7433661,29.1308622 20.5569036,25.2960114 20.5569036,20.5658542 C20.5569036,17.7674206 19.2229003,15.2830124 17.1589852,13.7198343 C19.4232329,11.6731908 20.7662602,7.34552062 21.9940383,4.28464205 C23.2421848,1.17325216 25.3821592,0.125877395 25.3821592,0.125877395 L16.1537129,0.125877395 C16.7632189,0.864839175 16.8225194,1.58883464 16.8075653,2.08192125 C16.7928691,2.57500787 15.9309493,5.40925368 14.2960604,8.72108528 C13.0533283,11.2391677 10.874164,11.8517176 9.90060453,12.000579 L7.78873339,12.000579 L7.78873339,5.00863751 C7.78873339,3.02934241 8.5647964,1.26278279 9.77839394,0.106367735 L0.215802239,0.106367735 C1.42965761,1.26278279 2.20572062,3.02934241 2.20572062,5.00863751 L2.20572062,24.2716206 C2.20572062,26.2268627 1.3474104,27.9741799 0,29.1308622 L0,29.1308622 Z M7.69746219,24.2638702 L7.69746219,16.0607263 L11.3067998,16.0607263 C13.6298322,16.0607263 15.5130097,17.8970396 15.5130097,20.162031 C15.5130097,22.4275568 13.6298322,24.2638702 11.3067998,24.2638702 L7.69746219,24.2638702 Z" id="path44"></path>
                                </g>
                                <g id="g46" transform="translate(71.624892, 0.058699)" fill-rule="nonzero">
                                    <path d="M0,16.035337 C0,23.7523429 5.21612318,30.0082624 11.6510005,30.0082624 C18.0856199,30.0082624 23.3020009,23.7523429 23.3020009,16.035337 L23.3020009,14.1594698 C23.3020009,6.44219664 18.0856199,0.186811676 11.6507426,0.186811676 C5.21612318,0.186811676 0,6.44219664 0,14.1594698 L0,16.035337 Z M5.46879486,15.0970025 C5.46879486,9.4140791 8.23658105,4.80739403 11.6510005,4.80739403 C15.0654199,4.80739403 17.8329482,9.41514812 17.8329482,15.0978043 C17.8329482,20.7807277 15.0654199,25.3874128 11.6507426,25.3874128 C8.23658105,25.3874128 5.46879486,20.7796587 5.46879486,15.0970025 L5.46879486,15.0970025 Z" id="path48"></path>
                                </g>
                                <g id="g50" transform="translate(127.070289, 0.799265)">
                                    <path d="M9.53964499,0 L0.135101999,0 C1.45853437,1.15294073 2.30369535,2.90693934 2.30369535,4.87100087 L2.30369535,23.9666819 C2.30369535,25.895733 1.48870027,27.6216697 0.205746938,28.7748777 L9.46900005,28.7748777 C8.18604671,27.6216697 7.37130946,25.895733 7.37130946,23.9666819 L7.37130946,4.87100087 C7.37130946,2.90693934 8.21595479,1.15294073 9.53964499,0" id="path52"></path>
                                </g>
                                <g id="g54" transform="translate(97.552229, 0.799265)">
                                    <path d="M25.2671678,0 L18.6012764,0 L7.40560062,17.8590893 L7.40560062,4.87100087 C7.40560062,2.90693934 8.25050377,1.15294073 9.57393614,0 L0.169135327,0 C1.49308335,1.15294073 2.33772868,2.90693934 2.33772868,4.87100087 L2.33772868,23.9666819 C2.33772868,25.895733 1.52299143,27.6216697 0.240295922,28.7748777 L6.88452974,28.7748777 L18.0309603,10.9850076 L18.0309603,23.9666819 C18.0309603,25.895733 17.2159653,27.6216697 15.9330119,28.7748777 L25.196265,28.7748777 C23.9133117,27.6216697 23.0985745,25.895733 23.0985745,23.9666819 L23.0985745,4.87100087 C23.0985745,2.90693934 23.9432198,1.15294073 25.2671678,0" id="path56"></path>
                                </g>
                                <g id="g58" transform="translate(21.953430, 0.752548)" fill-rule="nonzero">
                                    <path d="M0.515656486,8.55217973 C4.08606199,11.1870529 9.15677005,11.2073643 11.8353477,10.7372617 C14.6441285,10.2444423 15.0154012,11.3225515 15.0154012,11.3225515 C15.0154012,11.3225515 15.2830269,9.38174117 11.8353477,9.84382613 C11.6878699,9.86360304 11.533173,9.88257819 11.3720303,9.90021706 L11.3720303,4.9177706 L11.3733195,4.79135869 L18.0175533,4.79135869 C18.0175533,4.79135869 21.4353245,4.86832831 22.4756614,5.85423428 L21.8365052,0.0467697329 L3.66193453,0.0467697329 C4.98562473,1.19971046 5.83027006,2.95370907 5.83027006,4.9177706 L5.83027006,9.7711326 C3.88418248,9.44267545 1.88756057,8.75369047 0.243132033,7.45028482 C0.29933859,7.69856529 0.384937567,8.05374801 0.515656486,8.55217973 M16.4347457,12.193003 C18.6298953,12.0542973 20.8608831,12.5278743 21.3914937,12.6500101 L21.8491388,11.8990218 C17.1876042,10.858863 15.1940762,11.5999628 15.1940762,11.5999628 L15.1860835,11.574039 C15.1138916,11.4831721 14.4989712,10.8420259 11.7610931,11.2148474 C8.81849939,11.6151964 3.85504789,11.3842875 0.734552664,9.32000512 C1.19116648,10.6979751 1.96774515,11.8926077 1.96774515,11.8926077 L1.03466474,13.3860321 C2.35964408,14.2580871 5.1560492,14.8922847 8.40081764,14.9508137 C9.94959189,14.9788755 11.4006492,14.9203466 12.6415766,14.7116199 L12.8382995,14.6827563 C14.55492,14.334255 14.9707969,14.5421799 14.9707969,14.5421799 L14.9955484,14.5437834 C15.2734873,14.6862306 15.4622176,14.9136652 15.4880004,15.1737049 C15.2103194,14.9679181 14.7660813,14.8348248 14.265121,14.8348248 L13.8340322,14.904044 C12.3595125,15.2998495 10.55884,15.451918 8.40081764,15.4128987 C4.98227297,15.3511626 2.06159463,14.6504184 0.834332194,13.7062043 L0.483170127,14.2685101 C1.18626775,15.1149087 3.21460253,15.8175237 5.83027006,16.132618 L5.83027006,24.0134517 C5.83027006,25.9422354 5.01553281,27.6681722 3.7328373,28.8216475 L21.0044935,28.7601787 L21.6433919,22.9527141 C20.6030549,23.9386201 17.1850259,24.0155897 17.1850259,24.0155897 L11.3720303,24.0155897 L11.3720303,16.1884745 C12.0395476,16.1205915 12.6655546,16.0257158 13.236902,15.9075888 C13.4374924,16.2488742 13.3415803,17.6490264 13.3240479,17.8826078 C14.2215481,17.6677343 15.5944834,17.5306322 17.1332024,17.5306322 C19.3541349,17.5306322 21.2298353,17.8165957 21.829286,18.2086597 L21.2520086,17.0629348 C18.066025,16.4201851 16.0237675,16.5989791 14.9707969,16.8066367 C14.9707969,16.8066367 16.0333071,15.5524061 21.0235728,16.6099366 L20.0979694,14.7730887 L21.1519712,13.0434104 C20.1289088,12.7518345 17.4407915,12.4249809 16.5610815,12.6166031 C15.6769885,12.8092944 15.5877799,12.6935728 15.5877799,12.6935728 C15.5877799,12.6935728 14.9707969,12.2854734 16.4347457,12.193003" id="path60"></path>
                                </g>
                            </g>
                        </g>
                    </g>
                </g>
            </g>
        </g>
    </g>
</svg>