<svg width="157" height="45" viewBox="0 0 157 45" xmlns="http://www.w3.org/2000/svg"><title>shopify_monotone_white</title><g fill="#FFF" fillRule="nonzero"><path d="M53.962 25.235c-1.337-.727-2.041-1.316-2.041-2.147 0-1.073.95-1.73 2.464-1.73 1.76 0 3.309.727 3.309.727l1.232-3.704s-1.127-.866-4.47-.866c-4.648 0-7.886 2.631-7.886 6.3 0 2.077 1.513 3.67 3.52 4.812 1.62.9 2.183 1.558 2.183 2.492 0 1.004-.81 1.8-2.324 1.8-2.253 0-4.365-1.142-4.365-1.142l-1.302 3.704s1.971 1.28 5.245 1.28c4.787 0 8.202-2.319 8.202-6.473.07-2.284-1.69-3.876-3.767-5.053zM73.042 17.446c-2.359 0-4.189 1.108-5.632 2.77l-.07-.035L69.38 9.658h-5.316l-5.174 26.757h5.315l1.76-9.138c.704-3.462 2.5-5.573 4.19-5.573 1.196 0 1.654.796 1.654 1.938 0 .727-.07 1.593-.246 2.32L69.557 36.45h5.316l2.077-10.8c.246-1.142.387-2.492.387-3.427.035-3.011-1.55-4.777-4.295-4.777zM89.411 17.446c-6.407 0-10.666 5.677-10.666 12.012 0 4.05 2.534 7.338 7.322 7.338 6.301 0 10.526-5.538 10.526-12.011.035-3.773-2.183-7.339-7.182-7.339zm-2.605 15.3c-1.83 0-2.57-1.523-2.57-3.427 0-3.011 1.585-7.892 4.471-7.892 1.901 0 2.5 1.592 2.5 3.15 0 3.254-1.585 8.17-4.4 8.17zM110.251 17.446c-3.59 0-5.632 3.116-5.632 3.116h-.07l.316-2.804h-4.717c-.246 1.904-.669 4.777-1.091 6.957L95.36 43.892h5.316l1.479-7.754h.105s1.091.693 3.133.693c6.266 0 10.35-6.3 10.35-12.67 0-3.565-1.584-6.715-5.492-6.715zm-5.07 15.404c-1.372 0-2.182-.762-2.182-.762l.88-4.88c.634-3.254 2.359-5.435 4.19-5.435 1.619 0 2.112 1.489 2.112 2.873 0 3.358-2.042 8.204-5 8.204zM123.346 9.9c-1.69 0-3.062 1.315-3.062 3.046 0 1.558.985 2.63 2.5 2.63h.07c1.654 0 3.097-1.107 3.133-3.045.035-1.523-1.021-2.631-2.64-2.631zM115.883 36.415h5.351l3.626-18.553h-5.386zM138.378 17.792h-3.696l.176-.865c.316-1.8 1.373-3.392 3.168-3.392.95 0 1.69.277 1.69.277l1.056-4.085s-.916-.45-2.887-.45c-1.9 0-3.767.52-5.21 1.73-1.83 1.524-2.675 3.705-3.098 5.92l-.14.865h-2.465l-.774 3.946h2.464l-2.816 14.643h5.315l2.817-14.643h3.66l.74-3.946zM151.192 17.862s-3.345 8.238-4.823 12.738h-.07c-.106-1.454-1.303-12.738-1.303-12.738h-5.597l3.203 17.03c.07.381.035.623-.105.866-.634 1.177-1.655 2.319-2.887 3.15-.986.727-2.112 1.177-2.992 1.488l1.478 4.43c1.092-.241 3.31-1.107 5.21-2.838 2.43-2.25 4.682-5.676 6.97-10.384l6.513-13.742h-5.597z"/><g><path d="M24.873 43.754l12.92-2.852S33.129 8.765 33.095 8.554c-.035-.212-.208-.352-.38-.352-.173 0-3.455-.247-3.455-.247s-2.28-2.323-2.556-2.57c-.07-.07-.139-.105-.208-.14l-1.623 38.509zM25.944 5.174c-.035 0-.104.036-.139.036-.034 0-.518.14-1.278.387-.76-2.253-2.107-4.33-4.49-4.33h-.208C19.14.387 18.31 0 17.584 0c-5.562 0-8.222 7.075-9.051 10.666-2.142.668-3.697 1.161-3.87 1.232-1.208.387-1.243.422-1.381 1.584C3.144 14.326 0 39.142 0 39.142l24.285 4.647 1.659-38.615zM19.622 6.9v.247c-1.347.422-2.833.88-4.284 1.337.83-3.238 2.384-4.822 3.731-5.42.346.915.553 2.147.553 3.836zM17.41 1.514c.242 0 .484.07.725.246-1.761.845-3.696 2.992-4.49 7.286-1.175.388-2.315.74-3.386 1.056.933-3.273 3.178-8.588 7.15-8.588zm.967 19.113s-1.45-.774-3.178-.774c-2.59 0-2.695 1.654-2.695 2.077 0 2.252 5.804 3.132 5.804 8.448 0 4.188-2.59 6.864-6.114 6.864-4.215 0-6.357-2.676-6.357-2.676l1.14-3.801S9.19 32.7 11.055 32.7c1.209 0 1.727-.986 1.727-1.69 0-2.957-4.767-3.097-4.767-7.955 0-4.083 2.867-8.06 8.705-8.06 2.245 0 3.35.668 3.35.668l-1.692 4.963zM20.59 2.816c1.244.14 2.038 1.584 2.556 3.203-.621.211-1.312.423-2.072.669V6.23c0-1.372-.173-2.499-.484-3.414z"/></g></g></svg>
