<?xml version="1.0" encoding="UTF-8"?>
<svg width="40px" height="40px" viewBox="0 0 40 40" version="1.1" xmlns="http://www.w3.org/2000/svg" xmlns:xlink="http://www.w3.org/1999/xlink">
    <!-- Generator: Sketch 48.2 (47327) - http://www.bohemiancoding.com/sketch -->
    <title>Combined Shape</title>
    <desc>Created with Sketch.</desc>
    <defs></defs>
    <g id="Desktop-HD-Copy-21" stroke="none" stroke-width="1" fill="none" fillRule="evenodd" transform="translate(-1098.000000, -3021.000000)">
        <g id="Slack_Mark_Monochrome_White" transform="translate(1098.000000, 3021.000000)" fill="#FFFFFF" fillRule="nonzero">
            <path d="M38.2857143,14.4444444 C42.3809524,28.0952381 39.2063492,34 25.5555556,38.0952381 C11.9047619,42.1904762 6,39.015873 1.9047619,25.3650794 C-2.19047619,11.7142857 0.984126984,5.80952381 14.6349206,1.71428571 C28.2857143,-2.38095238 34.1904762,0.793650794 38.2857143,14.4444444 Z M31.3968254,23.3015873 C32.4761905,22.952381 33.047619,21.7777778 32.6984127,20.6984127 C32.3492063,19.6190476 31.1746032,19.047619 30.0952381,19.3968254 L27.5238095,20.2539683 L25.8095238,15.1428571 L28.3809524,14.2857143 C29.4603175,13.9365079 30.031746,12.7619048 29.6825397,11.6825397 C29.3333333,10.6031746 28.1587302,10.031746 27.0793651,10.3809524 L24.5079365,11.2380952 L23.6190476,8.57142857 C23.2698413,7.49206349 22.0952381,6.92063492 21.015873,7.26984127 C19.9365079,7.61904762 19.3650794,8.79365079 19.7142857,9.87301587 L20.6031746,12.5396825 L15.3015873,14.3174603 L14.4126984,11.6507937 C14.0634921,10.5714286 12.8888889,10 11.8095238,10.3492063 C10.7301587,10.6984127 10.1587302,11.8730159 10.5079365,12.952381 L11.3968254,15.6190476 L8.82539683,16.4761905 C7.74603175,16.8253968 7.17460317,18 7.52380952,19.0793651 C7.80952381,19.9047619 8.6031746,20.4444444 9.42857143,20.4761905 C9.65079365,20.5079365 9.9047619,20.4444444 10.1269841,20.3809524 L12.6984127,19.5238095 L14.4126984,24.6349206 L11.8412698,25.4920635 C10.7619048,25.8412698 10.1904762,27.015873 10.5396825,28.0952381 C10.8253968,28.9206349 11.6190476,29.4603175 12.4444444,29.4920635 C12.6666667,29.5238095 12.9206349,29.4603175 13.1428571,29.3968254 L15.7142857,28.5396825 L16.6031746,31.2063492 C16.8888889,32.031746 17.6825397,32.5714286 18.5079365,32.6031746 C18.7301587,32.6349206 18.984127,32.5714286 19.2063492,32.5079365 C20.2857143,32.1587302 20.8571429,30.984127 20.5079365,29.9047619 L19.6190476,27.2380952 L24.9206349,25.4603175 L25.8095238,28.1269841 C26.0952381,28.952381 26.8888889,29.4920635 27.7142857,29.5238095 C27.9365079,29.5555556 28.1904762,29.4920635 28.4126984,29.4285714 C29.4920635,29.0793651 30.0634921,27.9047619 29.7142857,26.8253968 L28.8253968,24.1587302 L31.3968254,23.3015873 Z M16.3613145,18.0822667 L22.0506482,16.1766219 L23.6386855,20.9177333 L17.9493518,22.8233781 L16.3613145,18.0822667 Z" id="Combined-Shape"></path>
        </g>
    </g>
</svg>
